<svg width="1440" height="225" viewBox="0 0 1440 225" fill="none" xmlns="http://www.w3.org/2000/svg">
<path d="M-27 360V175.309H-17.738V171.118H-12.5127L-11.0791 165.871H3.44591L4.63432 170.873L10.35 172.308V178.745L15.1225 178.499V173.025L17.7445 169.684V165.871H22.4982V171.59L26.0823 173.497V183.03H47.2661L56.7923 192.808L84.6727 193.752V166.588L107.29 166.833V156.111H116.1V152.997H119.438L120.382 155.394L128.003 156.338V150.392H147.545V155.866H152.299L153.732 160.396L172.313 159.679V53.1383L175.407 50.0425V43.1336L178.5 40.7551H184.933L187.31 42.907L189.687 43.1336L191.365 40.7551H198.986L201.118 44.5682V52.4398H209.456L208.512 37.4139H218.755V29.7876H220.887V37.1874L230.413 37.4139V43.1336L239.223 43.8509V50.7598L245.9 51.0052V159.434L268.518 160.151V148.485L292.814 147.994V137.027H299.492V123.209L333.786 123.454V105.824L346.16 90.0802L368.08 90.3256L378.795 105.578V146.805L386.415 146.579V60.538L437.857 61.2553V170.156L450.722 178.99V106.767H456.909V94.1387L509.067 94.3841V105.824L514.782 105.333L513.82 91.5149L519.536 89.8537V63.1619L559.074 79.3582V90.0802L563.602 89.8537V77.2251H569.789V49.5705H589.086V8.81548H593.84V0H640.056V9.5328L644.81 9.7782V94.8561H653.619V84.3605H660.051V75.7905L669.106 76.2624V58.6314L677.444 58.386V43.3789H682.669V40.2831L699.344 30.2596L714.831 39.3204V44.0963L721.49 44.8136V57.4422L728.885 57.6687V81.2647L768.178 81.5101V64.1057L832.239 64.5776V129.891H848.914V85.3233H857.252V68.1642L902.732 67.9188V84.6059L913.692 84.8513V113.676L922.746 112.487V85.3233L942.27 66.2577L968.472 66.7296V76.2624L972.754 75.5451V60.2926L979.186 59.8207V53.3837H983.468V59.8207L992.749 60.2926V78.4143L1005.86 78.1689V109.863L1015.39 140.142V177.555L1031.34 178.027V145.616L1042.06 146.088V81.0382L1052.53 80.7928V60.7645L1056.58 60.538V73.9972H1061.83V80.3209L1100.4 79.8301V135.838L1118.02 136.083V177.31L1138.51 158.018V146.088L1163.05 147.05V158.716L1185.67 179.991V199.717L1192.82 199.962L1191.63 136.083L1267.84 137.027V191.619L1284.02 191.845V183.992L1306.41 168.966L1321.9 169.212L1320.22 193.752L1334.52 193.034V153.714L1368.32 154.205V162.529H1374.76V153.714L1408.82 153.487V206.38L1421.92 207.343V193.997L1453.83 193.525L1455.02 212.591L1467 212.1V360H-27Z" fill="#1C3557"/>
</svg>
