<svg width="559" height="607" viewBox="0 0 559 607" fill="none" xmlns="http://www.w3.org/2000/svg">
<g filter="url(#filter0_d)">
<path d="M171.551 380.888C171.551 380.888 194.451 282.996 189.478 246.03C192.445 188.084 171.551 175.622 183.001 130.641C194.451 85.66 180.034 94.1778 194.953 85.7019C209.871 77.2261 243.886 136.893 243.886 136.893C243.886 136.893 254.793 149.607 260.476 140.124C260.476 140.124 266.159 142.599 266.452 146.711C266.744 150.781 280.534 145.243 281.871 142.473C283.209 139.704 289.143 130.053 280.994 88.5971C280.994 88.5971 281.119 71.3937 291.441 67.8691C298.837 66.4844 289.686 67.5753 304.521 77.0582C319.355 86.5411 344.679 113.06 351.783 136.683C351.783 136.683 370.462 148.683 372.718 154.222C372.718 154.222 379.655 155.439 383.082 157.327C386.55 159.257 391.565 147.425 407.82 144.152C424.076 140.879 437.197 129.382 454.33 138.068C467.117 155.271 457.631 157.159 457.631 157.159C457.631 157.159 458.467 160.39 461.016 160.013C462.98 162.152 465.111 170.377 463.231 173.44C461.351 176.503 475.6 187.874 466.783 212.882C457.924 237.89 438.158 264.744 438.158 264.744C438.158 264.744 427.92 286.185 432.015 303.221C436.111 320.257 455.633 372.017 449.03 381.5C442.428 390.941 383.374 450.625 334.524 447.646C285.632 444.667 178.864 434.429 171.551 380.888Z" fill="white" stroke="#457B9D" stroke-miterlimit="10"/>
<path d="M295.411 205.707C295.411 205.707 292.11 181.161 311.207 177.846C319.23 178.098 325.623 182.377 333.856 182.587C343.133 180.405 333.48 193.958 324.453 195.763C319.648 197.903 317.976 206.378 299.757 202.518C296.163 202.896 295.411 205.707 295.411 205.707Z" fill="#457B9D"/>
<path d="M420.643 140.166C420.643 140.166 397.409 169.034 428.081 167.398L434.308 165.803C434.308 165.803 437.149 177.72 452.945 171.342C452.945 171.342 459.84 175.37 463.225 173.44C466.61 171.51 461.01 160.013 461.01 160.013L457.625 157.159C457.625 157.159 468.281 156.236 454.324 138.068C441.203 130.389 420.643 140.166 420.643 140.166Z" fill="#457B9D"/>
<path d="M311.996 183.007C311.996 183.007 300.964 184.895 303.471 196.35C308.486 204.532 320.604 195.846 320.604 195.846C320.604 195.846 323.696 192.322 320.604 188.168C317.512 184.014 313.542 182.587 311.996 183.007Z" fill="white"/>
<path opacity="0.44" d="M171.551 380.888C171.551 380.888 173.515 412.946 220.861 426.708C268.207 440.471 192.32 347.74 204.731 299.235C204.731 299.235 215.387 335.95 225.332 330.621C235.278 325.292 215.888 249.051 227.296 249.722C238.705 250.394 234.902 266.045 256.005 268.143C277.108 270.241 291.692 241.289 283.543 199.874C275.394 158.46 287.053 144.278 312.335 147.383C337.617 150.488 349.526 167.188 361.645 164.922C373.763 162.656 307.655 130.515 355 138.823C355 138.823 349.15 110.752 304.521 77.0583C304.521 77.0583 295.62 73.9533 295.244 67.3657C295.244 67.3657 280.618 72.4008 280.994 88.5973C281.37 104.794 289.143 129.424 281.871 142.474C270.923 149.355 266.41 146.711 266.41 146.711C266.41 146.711 264.864 140.376 260.434 140.124C256.005 139.872 258.136 148.726 243.844 136.893C231.433 121.494 217.811 90.5694 200.176 84.9887C200.176 84.9887 188.601 85.744 187.807 90.3176C187.013 94.8912 191.526 107.479 182.458 135.508C174.853 159.048 190.105 229.834 190.105 229.834C190.105 229.834 179.7 373.629 171.551 380.888Z" fill="#457B9D"/>
<path d="M312.54 185.692C312.54 185.692 305.562 185.566 306.23 191.399C306.899 197.231 320.396 193.329 318.223 189.385C316.009 185.399 313.334 185.65 312.54 185.692Z" fill="#457B9D"/>
<path d="M358.216 277.92C358.216 277.92 361.015 267.136 377.731 259.919C394.446 252.702 462.435 212.295 452.949 171.342C452.949 171.342 457.086 198.951 469.58 199.833C469.58 199.833 470.918 213.931 456.584 201.931C456.584 201.931 426.957 245.485 399.502 254.128C372.047 262.814 383.623 277.248 358.216 277.92Z" fill="#457B9D"/>
<path opacity="0.16" d="M453.83 239.065C453.83 239.065 362.356 305.025 362.356 322.984C353.372 358.02 371.508 431.24 367.287 439.716C363.067 448.192 438.325 404.148 451.53 377C451.53 377 449.233 366.832 432.017 303.179C432.017 303.179 430.721 279.975 438.16 264.702C445.598 249.471 452.994 245.107 453.83 239.065Z" fill="#457B9D"/>
<path d="M171.633 380.888C171.633 380.888 188.349 287.234 189.56 246.03C191.942 189.972 171.633 175.622 183.083 130.641C194.533 85.6601 180.116 94.178 195.035 85.7021C209.953 77.2262 243.968 136.893 243.968 136.893C243.968 136.893 254.875 149.607 260.558 140.124C260.558 140.124 266.241 142.599 266.534 146.711C266.826 150.782 280.616 145.243 281.953 142.474C283.249 139.704 289.225 130.053 281.076 88.5973C281.076 88.5973 281.577 72.5687 291.899 69.0441C299.295 67.6594 289.81 67.5755 304.644 77.0584C319.479 86.5413 344.802 113.06 351.906 136.683C351.906 136.683 370.586 148.684 372.842 154.222C372.842 154.222 379.779 155.439 383.206 157.327C386.674 159.257 391.688 147.425 407.944 144.152C424.199 140.879 437.321 129.382 454.454 138.068C467.241 155.271 457.755 157.159 457.755 157.159C457.755 157.159 458.591 160.39 461.14 160.013C463.104 162.153 465.235 170.377 463.355 173.44C461.474 176.503 475.724 187.874 466.907 212.882C458.089 237.89 438.282 264.744 438.282 264.744C438.282 264.744 427.96 286.186 432.056 303.221C436.151 320.257 455.133 372.017 448.53 381.5C441.928 390.941 383.498 450.626 334.648 447.646C285.714 444.667 178.905 434.429 171.633 380.888Z" stroke="#457B9D" stroke-width="4" stroke-miterlimit="10"/>
<path d="M307.236 449.367C426.692 449.367 523.53 352.13 523.53 232.183C523.53 112.236 426.692 15 307.236 15C187.78 15 90.9415 112.236 90.9415 232.183C90.9415 352.13 187.78 449.367 307.236 449.367Z" stroke="#457B9D" stroke-width="30" stroke-miterlimit="10"/>
<path d="M156.871 400L176.386 411.203L137.064 458.702L120.348 446.785L156.871 400Z" fill="#457B9D"/>
<path d="M16.3998 583.707C-1.81975 570.784 -5.41349 546.615 8.4183 529.957L74.7357 450.108C88.5675 433.45 114.81 430.387 133.03 443.31C151.249 456.234 154.843 480.403 141.011 497.061L74.6939 576.91C60.8621 593.526 34.6193 596.589 16.3998 583.707Z" fill="#457B9D"/>
<path d="M213.127 195.93C213.127 195.93 216.595 179.44 201.593 168.992C186.591 158.544 198.417 123.802 201.593 108.738C204.769 93.6746 237.364 155.355 237.071 181.161C237.071 181.161 218.601 179.44 213.127 195.93Z" fill="#457B9D"/>
<path d="M312.295 93.4224C312.295 93.4224 319.608 122.375 318.438 127.032C317.226 131.648 329.345 120.067 344.932 132.529C345.015 121.284 316.892 94.0098 312.295 93.4224Z" fill="#457B9D"/>
</g>
<defs>
<filter id="filter0_d" x="-0.00012207" y="0" width="558.53" height="606.678" filterUnits="userSpaceOnUse" color-interpolation-filters="sRGB">
<feFlood flood-opacity="0" result="BackgroundImageFix"/>
<feColorMatrix in="SourceAlpha" type="matrix" values="0 0 0 0 0 0 0 0 0 0 0 0 0 0 0 0 0 0 127 0"/>
<feOffset dx="16" dy="11"/>
<feGaussianBlur stdDeviation="2"/>
<feColorMatrix type="matrix" values="0 0 0 0 0 0 0 0 0 0 0 0 0 0 0 0 0 0 0.25 0"/>
<feBlend mode="normal" in2="BackgroundImageFix" result="effect1_dropShadow"/>
<feBlend mode="normal" in="SourceGraphic" in2="effect1_dropShadow" result="shape"/>
</filter>
</defs>
</svg>
