<svg width="24" height="28" viewBox="0 0 26 28" fill="none" xmlns="http://www.w3.org/2000/svg">
<path d="M14.3119 21.0058C19.8363 21.0058 24.3148 16.5274 24.3148 11.0029C24.3148 5.47846 19.8363 1 14.3119 1C8.78739 1 4.30894 5.47846 4.30894 11.0029C4.30894 16.5274 8.78739 21.0058 14.3119 21.0058Z" stroke="white" stroke-width="2" stroke-miterlimit="10"/>
<path d="M7.24237 18.8286L8.14333 19.3458L6.3279 21.5387L5.5562 20.9886L7.24237 18.8286Z" fill="white"/>
<path d="M0.757172 27.3099C-0.0839801 26.7132 -0.249895 25.5974 0.388686 24.8283L3.4504 21.1419C4.08898 20.3728 5.30055 20.2314 6.1417 20.8281C6.98285 21.4247 7.14877 22.5405 6.51019 23.3096L3.44847 26.996C2.80989 27.7632 1.59832 27.9046 0.757172 27.3099Z" fill="white"/>
</svg>
